<svg width="20" height="20" viewBox="0 0 20 20" fill="none" xmlns="http://www.w3.org/2000/svg">
<path d="M19.388 0.404962C19.33 0.260474 19.2185 0.143915 19.0767 0.0795341C18.935 0.0151529 18.7738 0.00790636 18.6269 0.0593019C18.4799 0.110697 18.3584 0.216778 18.2876 0.355475C18.2169 0.494172 18.2023 0.654807 18.247 0.803962C19.176 3.47396 17.332 5.46796 15.926 6.53596L15.358 5.72196C15.167 5.44896 14.74 5.22196 14.408 5.21796L11.22 5.23196C10.8305 5.24363 10.4515 5.36042 10.123 5.56996L0.729002 12.157C0.510497 12.3107 0.361821 12.5448 0.315527 12.8079C0.269234 13.0711 0.329094 13.3419 0.482002 13.561L4.751 19.669C5.071 20.124 5.582 20.069 6.038 19.751L15.432 13.163C15.702 12.972 16.014 12.56 16.124 12.245L17.122 9.09996C17.232 8.78596 17.165 8.30696 16.974 8.03396L16.628 7.53796C18.516 6.09096 20.476 3.53396 19.388 0.404962ZM15.017 9.76296C14.6673 10.0071 14.2351 10.1025 13.8151 10.0283C13.3951 9.95402 13.0218 9.71618 12.777 9.36696C12.5319 9.01662 12.4359 8.58335 12.5099 8.16226C12.584 7.74117 12.8221 7.36667 13.172 7.12096C13.4465 6.9292 13.7739 6.82779 14.1087 6.83084C14.4435 6.83388 14.7691 6.94124 15.04 7.13796C14.768 7.30196 14.581 7.39796 14.546 7.41296C14.422 7.47207 14.3218 7.57152 14.2618 7.69504C14.2018 7.81855 14.1855 7.95879 14.2155 8.09278C14.2456 8.22677 14.3204 8.34657 14.4275 8.43254C14.5346 8.51851 14.6677 8.56555 14.805 8.56596C14.8917 8.56596 14.9773 8.5463 15.062 8.50696C15.2567 8.41563 15.463 8.30563 15.681 8.17696C15.7303 8.477 15.6942 8.78485 15.5768 9.06532C15.4594 9.34579 15.2654 9.58755 15.017 9.76296Z" fill="currentColor"/>
</svg>