<svg width="7" height="12" viewBox="0 0 7 12" fill="none" xmlns="http://www.w3.org/2000/svg">
<path d="M0.242362 1.15122C0.189735 1.09553 0.148593 1.03002 0.121284 0.958426C0.0939751 0.886834 0.0810342 0.810565 0.0832009 0.733972C0.0853677 0.657379 0.102599 0.581963 0.133912 0.512029C0.165225 0.442096 0.210005 0.379015 0.265696 0.326387C0.321387 0.27376 0.386899 0.232618 0.458491 0.205309C0.530083 0.178 0.606352 0.165059 0.682945 0.167226C0.759538 0.169392 0.834955 0.186624 0.904888 0.217936C0.974822 0.249249 1.0379 0.294029 1.09053 0.349721L6.04886 5.59972C6.15126 5.70803 6.20831 5.85142 6.20831 6.00047C6.20831 6.14952 6.15126 6.29291 6.04886 6.40122L1.09053 11.6518C1.03825 11.7087 0.975183 11.7547 0.904992 11.787C0.834801 11.8193 0.758886 11.8374 0.681656 11.8401C0.604426 11.8429 0.527421 11.8303 0.455112 11.803C0.382804 11.7757 0.316635 11.7344 0.260448 11.6813C0.204261 11.6282 0.159176 11.5645 0.127812 11.4939C0.0964489 11.4233 0.0794315 11.3471 0.0777488 11.2699C0.0760665 11.1926 0.0897517 11.1158 0.118011 11.0439C0.14627 10.9719 0.188539 10.9063 0.242362 10.8509L4.8227 6.00047L0.242362 1.15122Z" fill="white"/>
</svg>
